# xmcd
#
# Track frame offsets: 
#        182
#        12407
#        29725
#        42697
#        56452
#        73250
#        86957
#        100310
#        111832
#        120632
#        132370
#        144887
#        160035
#        173045
#        187560
#        206090
#        217785
#        228622
#        244605
#        256182
#
# Disc length: 3555 seconds
#
# Revision: 7
# Processed by: cddbd v1.5.2PL0 Copyright (c) Steve Scherf et al.
# Submitted via: ExactAudioCopy v1.0b1
#
DISCID=1b0de114
DTITLE=Various Artist - Legends Of Country Music Disc 3
DYEAR=1993
DGENRE=Country
TTITLE0=Tanya Tucker - Strong Enough To Bend
TTITLE1=Don Williams - Heartbeat In The Darkness
TTITLE2=Janie Frickie - Your Heart's Not In It
TTITLE3=John Anderson - Swingin'
TTITLE4=Oak Ridge Boys - Elvira
TTITLE5=Dottie West - What Are We Doin' In Love
TTITLE6=Dolly Parton - Here You Come Again
TTITLE7=Freddy Fender - Before The Next Teardrop Falls
TTITLE8=Faron Young - Alone With You
TTITLE9=Tennessee Ernie Ford - Sixteen Tons
TTITLE10=Sawyer Brown - Step That Step
TTITLE11=Lee Greenwood - Going Going Gone
TTITLE12=Reba McEntire - You're The First Time I've Thought About Leav
TTITLE12=ing
TTITLE13=Eddie Rabbitt - Drivin' My Life Away
TTITLE14=Juice Newton - The Sweetest Thing (I've Ever Known)
TTITLE15=Crystal Gayle - Don't It Make My Brown Eyes Blue
TTITLE16=Kendalls - Heaven's Just A Sin Away
TTITLE17=Billie Jo Spears - Blanket On The Ground
TTITLE18=Sammi Smith - Help Me Make It Through The Night
TTITLE19=Jim Reeves - He'll Have To Go
EXTD=Legends of Country Music.\n3 Disc Set\n(c) 1993 CEMA Special Mark
EXTD=ets\nProduct of CEMA Special Markets, a division of Capitol Recor
EXTD=ds, Inc. All Rights Reserved.\n
EXTT0=
EXTT1=
EXTT2=
EXTT3=
EXTT4=
EXTT5=
EXTT6=
EXTT7=
EXTT8=
EXTT9=
EXTT10=
EXTT11=
EXTT12=
EXTT13=
EXTT14=
EXTT15=
EXTT16=
EXTT17=
EXTT18=
EXTT19=
PLAYORDER=
